<?xml version="1.0" encoding="UTF-8"?>
<svg version="1.1" xmlns="http://www.w3.org/2000/svg" width="1024" height="1024">
<path d="M0 0 C29.21497387 -0.0686276 58.42994196 -0.12162653 87.64498012 -0.15319599 C91.10414052 -0.15694753 94.56330077 -0.16083056 98.02246094 -0.16479492 C99.05532557 -0.16597532 99.05532557 -0.16597532 100.10905614 -0.16717956 C111.21799536 -0.18018788 122.32688739 -0.20381612 133.43579873 -0.23145839 C144.85806142 -0.2596406 156.28028604 -0.27597901 167.70258451 -0.28226548 C174.10841822 -0.28615844 180.51414538 -0.29523477 186.91994476 -0.31719017 C192.96423955 -0.33773632 199.00838509 -0.34379758 205.05271149 -0.33932304 C207.25674758 -0.34014021 209.4607893 -0.34599676 211.66479492 -0.35761642 C249.99968389 -0.54959984 284.69800486 8.8660237 313 36 C313.89460938 36.81984375 314.78921875 37.6396875 315.7109375 38.484375 C336.79616556 58.44742005 348.9441801 87.64245162 350.10018921 116.50112915 C350.14691432 119.08062724 350.16442882 121.65836539 350.16796875 124.23828125 C350.17220352 125.18909576 350.17643829 126.13991028 350.18080139 127.11953735 C350.19063837 130.1839038 350.1907289 133.24812062 350.1875 136.3125 C350.18689575 137.36156525 350.1862915 138.41063049 350.18566895 139.4914856 C350.08728498 202.3990356 335.90679237 253.05422223 299.6796875 304.55859375 C297.08848204 308.32488076 296.3161341 310.38390517 297 315 C299.00925146 317.96202555 301.50804909 320.4409409 304 323 C334.46984219 354.67604937 340.31675593 390.31974927 343 433 C343.04052962 433.64433078 343.08105925 434.28866156 343.12281704 434.95251751 C343.88691315 447.3927092 344.16285895 459.78819887 344.16796875 472.25 C344.17120226 474.16007509 344.17456767 476.07014996 344.17805481 477.98022461 C344.18399503 481.97038339 344.18590059 485.96052071 344.18530273 489.95068359 C344.18522241 493.94063951 344.19202284 497.93047831 344.20581055 501.92041016 C344.27982609 523.68016049 344.07480524 545.3861667 343.05078125 567.125 C343.0075643 568.05281281 342.96434734 568.98062561 342.91982079 569.93655396 C342.7954848 572.54399167 342.66407737 575.1509338 342.52856445 577.7578125 C342.47156215 578.90595177 342.47156215 578.90595177 342.41340828 580.07728577 C342.20720744 583.80084513 341.85477703 587.36671579 341 591 C314.80834135 592.39070754 288.33339524 582.54782237 268.59033203 565.29150391 C247.81296332 546.46140499 234.98940188 522.88041419 231 495 C230.9063964 492.37020109 230.85619831 489.76644935 230.8581543 487.13720703 C230.85294266 485.98938499 230.85294266 485.98938499 230.84762573 484.81837463 C230.84030159 483.16352175 230.8349385 481.50865926 230.83133507 479.8537941 C230.82411305 477.21925376 230.80840057 474.58489367 230.78999329 471.95040894 C230.73781954 464.46175746 230.68967095 456.97320398 230.67407227 449.484375 C230.66388589 444.89308709 230.63429251 440.30225399 230.59275246 435.71114731 C230.5805833 433.97718653 230.5752949 432.2431611 230.57755089 430.50915909 C230.59564933 412.04415608 227.9028219 395.27382465 214.8125 381.1875 C203.60202623 370.7002826 190.92529266 366.52645772 175.80659485 366.60127258 C174.73547256 366.59462576 173.66435027 366.58797893 172.56076974 366.58113068 C169.00175864 366.5626031 165.44308676 366.56509911 161.8840332 366.56762695 C159.32086211 366.55860357 156.75769533 366.54827494 154.1945343 366.53674316 C148.69167961 366.51490665 143.1889235 366.50208533 137.68602943 366.49761391 C129.72996891 366.49113333 121.77402187 366.46816261 113.81800725 366.44127061 C100.90741472 366.39807489 87.99682699 366.36806703 75.08618164 366.34643555 C62.5506759 366.32540417 50.01520936 366.2981103 37.47973633 366.26245117 C36.70600744 366.26025235 35.93227854 366.25805352 35.13510332 366.25578807 C31.25322148 366.24471787 27.37134 366.23352517 23.48945868 366.22227156 C-8.67366151 366.1291887 -40.8367959 366.05754345 -73 366 C-73.01799388 363.43616629 -73.03113538 360.8724603 -73.04150391 358.30859375 C-73.04706802 357.5868396 -73.05263214 356.86508545 -73.05836487 356.12145996 C-73.07426966 350.87475103 -72.66148762 346.07314208 -71.375 341 C-71.19606201 340.25637207 -71.01712402 339.51274414 -70.83276367 338.74658203 C-66.17512774 320.22997455 -58.00472674 303.12232045 -45 289 C-44.28070313 288.21713623 -44.28070313 288.21713623 -43.546875 287.41845703 C-24.64016667 267.07345429 1.61501896 252.84453331 29.6433239 250.72441101 C33.38242844 250.61734965 37.1107439 250.59735308 40.85131836 250.61523438 C42.26598036 250.61111437 43.68063896 250.60564517 45.09529114 250.59895325 C48.10875262 250.58735084 51.1220316 250.58469931 54.1355114 250.58930969 C58.91730201 250.59620425 63.69885888 250.58010806 68.48060608 250.56091309 C78.6328917 250.52328864 88.78515538 250.51029446 98.9375 250.5 C109.90033773 250.48888094 120.86306483 250.47327719 131.82582766 250.42928743 C136.56239202 250.41111827 141.2986819 250.40697044 146.03527248 250.41422272 C149.00026054 250.41576277 151.96511562 250.4048484 154.93006706 250.39084435 C156.92355832 250.38504415 158.91707613 250.39385204 160.91055298 250.40339661 C172.82247225 250.32387935 185.73889142 249.17770277 196.375 243.375 C197.36294556 242.85667603 197.36294556 242.85667603 198.37084961 242.32788086 C213.64762993 233.97347937 223.5871178 220.01954566 228.421875 203.51953125 C230.14779541 195.99778352 230.17598111 188.63726083 230.203125 180.9453125 C230.20882507 179.68919159 230.21452515 178.43307068 230.22039795 177.1388855 C230.22982174 174.48789863 230.2367325 171.83702422 230.24023438 169.18603516 C230.24571663 165.81160667 230.26976096 162.43758211 230.29820633 159.06328011 C230.3214529 155.81565557 230.32328929 152.56800853 230.328125 149.3203125 C230.3466452 147.51991013 230.3466452 147.51991013 230.36553955 145.68313599 C230.3378955 135.20130837 228.47841097 126.68711081 221 119 C216.22228207 115.42188224 211.52956576 113.88201185 205.62266541 113.86196899 C204.75272446 113.85651566 203.88278351 113.85106232 202.98648071 113.84544373 C202.03953339 113.8444014 201.09258606 113.84335907 200.11694336 113.84228516 C199.11300034 113.83720444 198.10905731 113.83212372 197.07469177 113.82688904 C194.89215403 113.81618645 192.70960533 113.80756583 190.52705193 113.80076981 C187.05594629 113.78894704 183.58496319 113.76947919 180.11390686 113.74765015 C170.24321679 113.6861921 160.37253609 113.63227173 150.50170898 113.59863281 C144.46042639 113.5774933 138.4193625 113.54202676 132.37820625 113.49787521 C130.09128995 113.48385268 127.8043349 113.47502441 125.51737785 113.47182083 C89.78954439 113.41653715 58.36375765 105.34507632 32.25 79.8125 C25.38675327 72.87286815 19.88091463 65.43440295 15 57 C14.35546875 55.89398438 13.7109375 54.78796875 13.046875 53.6484375 C4.15962676 37.14906795 -0.09536226 18.68771486 0 0 Z " fill="#02045D" transform="translate(292,267)"/>
<path d="M0 0 C16.5981586 12.8134816 28.17757219 31.98440319 30.9375 52.9375 C33.15694519 79.27555126 26.1146513 100.78576225 9.18359375 121.03515625 C0.38993115 130.58853052 -11.81088394 137.89199993 -24.0625 141.9375 C-24.97128906 142.25460937 -25.88007812 142.57171875 -26.81640625 142.8984375 C-48.00181776 149.04813086 -71.33385457 145.45099917 -90.43359375 135.07421875 C-95.43986246 132.21071097 -99.8164005 128.83348252 -104.0625 124.9375 C-104.81789063 124.27363281 -105.57328125 123.60976563 -106.3515625 122.92578125 C-121.19503109 109.12798656 -129.87853949 89.06482864 -131.0625 68.9375 C-131.124375 67.9165625 -131.124375 67.9165625 -131.1875 66.875 C-131.81350176 45.59094029 -123.99349481 25.7740283 -110.0625 9.9375 C-109.39605469 9.17566406 -108.72960937 8.41382813 -108.04296875 7.62890625 C-79.50402304 -22.92206161 -32.91816069 -23.19131704 0 0 Z " fill="#FF5300" transform="translate(754.0625,182.0625)"/>
</svg>
